<?xml version="1.0" standalone="no"?>
<!DOCTYPE svg PUBLIC "-//W3C//DTD SVG 1.1//EN" "http://www.w3.org/Graphics/SVG/1.1/DTD/svg11.dtd">
<svg xmlns="http://www.w3.org/2000/svg">
<metadata>Copyright (C) 2016 by original authors @ fontello.com</metadata>
<defs>
<font id="uber-icons" horiz-adv-x="1000" >
<font-face font-family="uber-icons" font-weight="400" font-stretch="normal" units-per-em="1000" ascent="850" descent="-150" />
<missing-glyph horiz-adv-x="1000" />
<glyph glyph-name="add-person" unicode="&#xea01;" d="m219 538c0 103 84 187 187 187s188-84 188-187-84-188-188-188-187 84-187 188z m-188-438v-62c0-35 28-63 63-63h625c34 0 62 28 62 63v62c0 0-136 125-375 125s-375-125-375-125z m938 313h-125v125h-63v-125h-125v-63h125v-125h63v125h125v63z" horiz-adv-x="1000" />
<glyph glyph-name="alert" unicode="&#xea02;" d="m929 25l-373 682c-24 45-88 45-112 0l-373-682c-24-43 7-97 56-97h746c49 0 80 54 56 97z m-366 44c0-9-7-16-16-16h-94c-8 0-15 7-15 16v94c0 8 7 15 15 15h94c9 0 16-7 16-15v-94z m0 187c0-8-7-15-16-15h-94c-8 0-15 7-15 15v219c0 9 7 16 15 16h94c9 0 16-7 16-16v-219z" horiz-adv-x="1000" />
<glyph glyph-name="android" unicode="&#xea03;" d="m813 192c-28 0-50 23-50 51v217c0 28 22 51 50 51 27 0 49-23 49-51v-217c0-28-22-51-49-51z m-135-107h-37c1-5 2-9 2-14v-3-17-88c0-28-22-51-50-51-27 0-49 23-49 51v88 17 3c0 5 1 9 2 14h-92c1-5 2-9 2-14v-3-17-88c0-28-22-51-49-51-27 0-50 23-50 51v88 17 3c0 5 1 9 2 14h-37c-29 0-52 24-52 53v296 35 42h3 454 3v-42-35-296c0-29-23-53-52-53z m-291 629l-9 15-10 14-20 31c-3 4-2 10 2 12 4 3 9 2 12-2l22-34 9-14 9-15c30 12 63 19 98 19 35 0 68-7 98-19l9 15 10 14 22 34c2 4 7 5 11 2 4-2 5-8 2-12l-20-31-9-14-10-15c70-33 117-97 117-169h-460c0 72 47 136 117 169z m212-101c13 0 24 11 24 25 0 14-11 25-24 25-14 0-25-11-25-25 0-14 11-25 25-25z m-198 0c14 0 25 11 25 25 0 14-11 25-25 25-13 0-24-11-24-25 0-14 11-25 24-25z m-214-421c-27 0-49 23-49 51v217c0 28 22 51 49 51 28 0 50-23 50-51v-217c0-28-22-51-50-51z" horiz-adv-x="1000" />
<glyph glyph-name="apple" unicode="&#xea04;" d="m757 323c1-133 124-177 126-177-1-3-20-63-65-125-40-53-80-106-144-107-63-1-83 34-155 34-72 0-95-33-154-35-62-3-109 57-149 110-81 109-142 307-59 441 41 67 114 109 194 110 61 1 118-38 155-38 37 0 107 47 180 40 31-1 117-12 172-87-4-2-103-56-101-166z m-258 263c-7 50 19 102 50 135 34 37 91 65 138 67 6-52-16-103-49-140-33-37-86-66-139-62z" horiz-adv-x="1000" />
<glyph glyph-name="attach" unicode="&#xea05;" d="m922 477c0-64-25-128-74-176l-295-297c-7-6-16-6-23 0l-22 22c-6 6-6 16 0 22l296 297c37 36 55 84 55 132s-18 95-55 131-84 55-132 55c-48 0-96-18-133-55l-362-359c-24-24-36-55-36-86 0-33 12-65 36-89 25-25 58-37 90-37 32 1 63 13 87 37l362 359c12 12 18 28 18 44 0 16-6 31-18 44-12 12-28 18-44 18-16 0-32-6-45-18l-297-295c-6-7-16-7-22 0l-22 21c-6 7-6 16 0 23l297 294c25 25 57 37 89 37 32 0 64-12 88-37 24-24 37-56 37-87 0-32-13-64-37-88l-362-359c-36-37-83-55-131-55-48 0-97 18-134 55-37 36-55 84-55 133 1 47 19 94 55 130l362 359c49 49 113 73 177 73 64 0 128-24 176-73 49-48 74-112 74-175z" horiz-adv-x="1000" />
<glyph glyph-name="bookmark" unicode="&#xea06;" d="m789-79l-289 173-289-173c-10-7-23 1-23 13v785c0 35 28 63 62 63h500c35 0 63-28 63-63v-785c0-12-14-20-24-13z" horiz-adv-x="1000" />
<glyph glyph-name="briefcase" unicode="&#xea07;" d="m875 506h-125v94c0 52-42 94-94 94h-312c-52 0-94-42-94-94v-94h-125c-34 0-62-28-62-62v-375c0-35 28-63 62-63h750c35 0 63 28 63 63v375c0 34-28 62-63 62z m-562 0v94c0 17 14 31 31 31h312c18 0 32-14 32-31v-94h-375z" horiz-adv-x="1000" />
<glyph glyph-name="calculator" unicode="&#xea08;" d="m811 783h-625c-34 0-62-28-62-62v-751c0-34 28-62 62-62h625c35 0 63 28 63 62v751c0 34-28 62-63 62z m-469-781h-125v62h125v-62z m0 156h-125v63h125v-63z m0 156h-125v63h125v-63z m219-312h-125v62h125v-62z m0 156h-125v63h125v-63z m0 156h-125v63h125v-63z m219-312h-125v62h125v-62z m0 156h-125v63h125v-63z m0 156h-125v63h125v-63z m0 219h-563v125h563v-125z" horiz-adv-x="1000" />
<glyph glyph-name="calendar" unicode="&#xea09;" d="m813 663h-63v46c0 9-7 16-16 16h-31c-8 0-15-7-15-16v-46h-375v46c0 9-7 16-16 16h-31c-9 0-16-7-16-16v-46h-62c-35 0-63-28-63-63v-562c0-35 28-63 63-63h625c34 0 62 28 62 63v562c0 35-28 63-62 63z m-563-63h63v-62h-63v62z m125-500h-125v125h125v-125z m188 0h-125v125h125v-125z m0 188h-125v125h125v-125z m187-188h-125v125h125v-125z m0 188h-125v125h125v-125z m0 250h-62v62h62v-62z" horiz-adv-x="1000" />
<glyph glyph-name="camera" unicode="&#xea0a;" d="m875 569h-125l-62 125h-375l-63-125h-125c-34 0-62-28-62-63v-437c0-35 28-63 62-63h750c35 0 63 28 63 63v437c0 35-28 63-63 63z m-375-442c-106 0-192 86-192 192s86 192 192 192 192-86 192-192-86-192-192-192z m125 192c0-69-56-125-125-125s-125 56-125 125 56 125 125 125 125-56 125-125z" horiz-adv-x="1000" />
<glyph glyph-name="cancel" unicode="&#xea0b;" d="m500 788c-242 0-437-196-437-438s195-438 437-438 438 196 438 438-196 438-438 438z m0-122c65 0 126-19 177-53l-439-439c-34 50-54 111-54 176 0 175 142 316 316 316z m0-632c-65 0-126 20-176 54l439 439c34-51 53-112 53-177 0-174-141-316-316-316z" horiz-adv-x="1000" />
<glyph glyph-name="car-black" unicode="&#xea0c;" d="m937 308c-1-5-9-21-10-21s-51-12-66-13c-10 0-18-1-22-1-5-27-29-48-58-48-28 0-51 19-57 46-15 0-28-1-36-1-21 0-223 1-358 2-6-27-29-47-58-47-29 0-53 21-58 49-3 0-6 0-7 0-17 2-12 3-15 4-4 0-114 11-119 14-5 2-10 10-10 12 0 2-1 11 0 20 1 9 1 15 4 17 4 2 15 5 15 5s0 36 11 44c10 8 36 15 94 18 24 2 35 2 39 2 2 2 29 38 53 47 24 9 64 19 170 18 106 0 120-6 131-11 0 0 90-47 110-60 3-2 7-2 60-4 54-3 113-10 136-18 22-7 23-8 26-15 3-6 8-21 6-26 5-2 14-4 16-8 2-4 4-20 3-25z" horiz-adv-x="1000" />
<glyph glyph-name="car-suv" unicode="&#xea0d;" d="m134 498c3 0 9 2 14 3 6 1 9 1 9 1s9 9 13 10c3 0 30 2 47 3 16 0 155 2 171 2 15-1 93-3 97-4 4-1 11-7 12-7 0 0 35-1 49-2 15 0 34-3 35-3 0 0 17-2 25-7 2-1 60-34 81-49 20-15 21-16 26-18 15-8 28-11 30-12 2 0 146-12 163-26 5-5 9-9 12-15 2-6 6-15 9-29 4-14 4-18 4-18s6-6 6-7c0-2 1-31 1-31s-3-3-4-5c-2-1-3-5-4-8-1-3-3-7-2-9 1-2 2-4 0-7-3-2-5-6-8-8-2-2-1-2-1-4s3-5 0-8c-3-3-12-4-19-4s-23 0-23 0v10c0 0-8 3-10 3 0 0-1 0-2 0-2-37-32-65-69-65-32 0-59 22-66 52l-2 0c0 0-11 4-16 9-4-3-8-4-21-5-13-1-139-2-139-2l-143 1c0 0-65 0-71 3-6 3-6 4-6 4s-4-1-7-3c-3-3-6-5-7-5 0-1-2-1-4-1-6-31-34-53-66-53-38 0-69 30-69 68 0 1 0 1 0 2h-1c0 0-31 4-40 5-8 1-27 6-33 6-6 0-20 1-23 3-3 2-19 19-19 31s0 30 0 30 16 6 16 6c1 1-2 12-2 29 0 16 4 47 4 47s11 28 20 42c8 15 26 35 26 35" horiz-adv-x="1000" />
<glyph glyph-name="car-taxi" unicode="&#xea0e;" d="m938 285c-1-6-10-35-16-39-5-3-23-6-26-6-2 0-44-1-52 3-8 1-15 2-15 2s-11-51-59-51c-48 0-65 41-65 51-10 0-118-2-190 0-72 1-171 4-171 4s0 0-4 0c0-15-15-52-67-52-38 0-59 35-59 52-8 0-68-1-88 2-21 2-51 4-60 22-1 4 0 3 0 5 0 3-3 7-3 7v11c0 0 1-1 1 0 0 1 0 8 5 13 6 4 16 6 16 10 1 4 1 36 3 44 2 7 3 15 15 18 11 3 118 10 119 11 1 2 50 51 78 63 13 6 33 9 53 11 4 11 16 36 21 39 6 3 119 0 127 0 8-1 21-30 26-39 1 0 3 0 5-1 34-6 35-5 60-20 24-15 73-52 75-55s7-6 9-6c1 0 3 1 5 1 2-1 9-4 14-4 0 0 51-2 97-9 46-6 99-15 111-25s7-10 7-11 5-10 7-15c1-6 1-20 2-20 1 0 19-11 19-16z" horiz-adv-x="1000" />
<glyph glyph-name="car-uberx" unicode="&#xea0f;" d="m937 245c-1-1-6-4-7-4 0-1-2-5-3-5-2 0-33-3-41-3-7 0-39-2-52-2-13-23-37-39-65-39-28 0-53 16-65 40-8-1-13-2-14-2-2 0-81 1-81 1l-160 1c0 0-140-1-141-1-1 1-3 2-4 1 0 0-5 1-11 1-12-24-37-41-66-41-33 0-61 23-70 53-5 0-8 0-8 0s-1-2-2-2c-1 0-50 4-51 4-2 1-9 12-18 15-9 3-11 3-12 5 0 2 0 2 0 2s-2 2-2 3c0 2 2 5 0 7-1 2-2 10-1 22 0 11 1 22 2 24 2 2 6 4 7 6 1 2 11 15 11 16 0 0 4 25 4 28 1 4 1 6 1 6-1 0-3 2-3 4 1 2 5 18 6 19 1 1 3 2 3 2 0 1 5 17 4 19 0 2-3 14-3 15s9 3 9 3 7 3 8 3c1 1 50 16 65 21 14 4 71 20 91 24 20 5 75 14 97 15 21 2 74 3 115-2 41-5 84-16 116-28 33-13 89-37 98-41 8-5 50-23 53-23 2-1 7 2 8 1s2-2 4-3c1 0 28-4 34-6 6-1 17-4 19-5 0 0 69-24 85-34 15-9 24-16 26-19 2-2 5-15 5-16s0-5 1-6 2-3 2-4c1-2 2-6 2-7 1-2 4-23 5-25 0-3 0-5-1-5-1-1-2-2-2-2 0-1-1-8-1-14-1-6-3-14-2-15 0 0 5-3 5-3s1-4 0-4z" horiz-adv-x="1000" />
<glyph glyph-name="car" unicode="&#xea10;" d="m906 475h-31c-15 0-27-11-30-25l-37 123c-16 53-65 90-120 90h-376c-55 0-104-37-120-90l-37-123c-3 14-15 25-30 25h-31c-17 0-31-14-31-31s14-31 31-31h50l-19-63v-281c0-17 14-31 31-31h63c17 0 31 14 31 31v31h500v-31c0-17 14-31 31-31h63c17 0 31 14 31 31v281l-19 63h50c18 0 32 14 32 31s-14 31-32 31z m-609-250h-47c-34 0-62 28-62 63v31l113-28c7-2 12-8 12-16v-34c0-9-7-16-16-16z m453 0h-47c-8 0-15 7-15 16v34c0 8 4 14 11 16l114 28v-31c0-35-28-63-63-63z" horiz-adv-x="1000" />
<glyph glyph-name="cart" unicode="&#xea11;" d="m906 69c0-52-42-94-93-94-41 0-76 26-89 63h-386c-13-37-47-63-88-63-52 0-94 42-94 94 0 49 39 90 88 93l37 94-77 394c-2 7-8 13-16 13h-79c-8 0-15 7-15 15v31c0 9 7 16 15 16h91c29 0 54-21 61-49l16-76h629l-52-231c-6-29-32-50-61-50l-446-55-47-116c18-11 31-28 38-48h386c13 36 48 63 89 63 51 0 93-42 93-94z" horiz-adv-x="1000" />
<glyph glyph-name="certified" unicode="&#xea12;" d="m891 418c-43 16-60 68-35 107 36 56-15 127-79 110-45-12-89 20-92 66-3 66-87 93-129 42-29-36-83-36-112 0-42 51-126 24-129-42-3-46-47-78-91-66-65 17-116-54-80-110 25-39 8-91-35-107-62-24-62-112 0-136 43-16 60-68 35-107-36-56 15-127 80-110 44 12 88-20 91-66 3-66 87-93 129-42 29 36 83 36 112 0 42-51 126-24 129 42 3 46 47 78 92 66 64-17 115 54 79 110-25 39-8 91 35 107 62 24 62 112 0 136z m-429-218c-6-6-15-10-24-10s-19 4-25 10l-140 140 49 50 116-115 240 240 50-50-266-265z" horiz-adv-x="1000" />
<glyph glyph-name="chart" unicode="&#xea13;" d="m867-25h-172c-4 0-7 3-7 8v734c0 5 3 8 7 8h172c5 0 8-3 8-8v-734c0-5-3-8-8-8z m-554 8v297c0 4-4 8-8 8h-172c-4 0-8-4-8-8v-297c0-5 4-8 8-8h172c4 0 8 3 8 8z m281 0v484c0 5-4 8-8 8h-172c-4 0-8-3-8-8v-484c0-5 4-8 8-8h172c4 0 8 3 8 8z" horiz-adv-x="1000" />
<glyph glyph-name="check-alt" unicode="&#xea14;" d="m500 788c-242 0-437-196-437-438s195-438 437-438 438 196 438 438-196 438-438 438z m265-330l-299-299c-24-24-64-24-88 0l-143 143c-6 6-6 16 0 22l74 74c6 6 16 6 22 0l91-90 247 246c6 7 16 7 22 0l74-74c6-6 6-16 0-22z" horiz-adv-x="1000" />
<glyph glyph-name="check" unicode="&#xea15;" d="m933 592l-66 66c-6 6-16 6-22 0l-470-470-220 220c-6 6-16 6-22 0l-66-66c-6-6-6-16 0-22l264-264c24-25 64-25 88 0l514 514c6 6 6 16 0 22z" horiz-adv-x="1000" />
<glyph glyph-name="clipboard" unicode="&#xea16;" d="m750 631h-62v32c0 17-14 31-31 31h-63c0 51-42 94-94 94s-93-43-93-94h-63c-17 0-31-14-31-31v-32h-63c-34 0-62-28-62-62v-594c0-35 28-63 62-63h500c35 0 63 28 63 63v594c0 34-28 62-63 62z m-250 94c18 0 32-14 32-31s-14-31-32-31-31 14-31 31 14 31 31 31z m250-750h-500v594h63 94 187 94 62v-594z m-437 500h375v-62h-375v62z m0-125h375v-62h-375v62z m0-125h250v-62h-250v62z" horiz-adv-x="1000" />
<glyph glyph-name="cloud" unicode="&#xea17;" d="m938 225c0-69-56-125-125-125h-625c-69 0-125 56-125 125 0 69 56 125 125 125 0 138 111 250 250 250 88 0 166-46 210-116 20 14 45 22 71 22 69 0 125-56 125-125 0-12-2-23-5-34 56-12 99-62 99-122z" horiz-adv-x="1000" />
<glyph glyph-name="code-alt" unicode="&#xea18;" d="m434 632v-75c0-11-8-19-19-19h-30-26v-26-105c0-31-25-57-56-57 31 0 56-25 56-56v-105-26h26 30c11 0 19-9 19-19l0 0h0v-75c0-11-8-19-19-19h-94c-41 0-75 34-75 75v113c0 31-25 56-56 56h-38c-10 0-18 8-18 18h0v76c0 10 8 19 18 19h38c31 0 56 25 56 56v112c0 42 34 76 75 76h94c11 0 19-9 19-19l0 0h0z m431-338h-38c-31 0-56-25-56-56v-113c0-41-33-75-75-75h-94c-10 0-19 8-19 19l0 0h0v75c0 10 9 19 19 19h30 27v26 105c0 31 25 56 56 56-31 0-56 26-56 57v105 26h-27-30c-10 0-19 8-19 19l0 0h0v75c0 10 9 19 19 19h94c42 0 75-34 75-76v-112c0-31 25-56 56-56h38c10 0 18-9 19-19h0v-75c0-11-9-19-19-19z" horiz-adv-x="1000" />
<glyph glyph-name="code" unicode="&#xea19;" d="m420 205c7-7 7-19 0-26l-53-53c-7-8-19-8-26 0l-212 211c-7 7-7 19 0 27l212 211c7 7 19 7 26 0l53-53c7-7 7-19 0-26l-146-146 146-145z m448 132l-211-211c-7-8-19-8-27 0l-52 53c-8 7-8 19 0 26l145 145-145 146c-8 7-8 19 0 26l52 53c8 7 20 7 27 0l211-211c7-8 7-20 0-27z" horiz-adv-x="1000" />
<glyph glyph-name="credit-card" unicode="&#xea1a;" d="m63 100c0-34 28-62 62-62h750c35 0 63 28 63 62v313h-875v-313z m125 125h125v-62h-125v62z m750 375v-62h-875v62c0 35 28 63 62 63h750c35 0 63-28 63-63z" horiz-adv-x="1000" />
<glyph glyph-name="crosshairs" unicode="&#xea1b;" d="m938 381h-65c-15 182-160 327-341 343v64h-63v-64c-182-15-328-160-343-343h-63v-62h63c15-183 161-328 343-343v-64h63v64c181 16 326 161 341 343h65v62z m-127 0h-190c-12 44-46 78-89 90v190c147-15 264-132 279-280z m-342 280v-190c-44-11-79-46-90-90h-190c15 148 132 265 280 280z m-280-342h190c11-44 46-79 90-90v-190c-148 15-265 132-280 280z m343-280v190c43 12 77 46 89 90h190c-15-147-132-265-279-280z" horiz-adv-x="1000" />
<glyph glyph-name="dashboard" unicode="&#xea1c;" d="m500 788c-242 0-437-196-437-438s195-438 437-438 438 196 438 438-196 438-438 438z m-224-662c-57 58-92 137-92 224 0 175 141 316 316 316 24 0 46-2 68-7l-43-60c-8 1-16 1-25 1-138 0-250-112-250-250 0-69 28-131 73-177l-47-47z m224 162c-11 0-21 2-31 8-30 17-40 55-23 85l184 257c2 0 3-1 4-2l48-27c1-1 2-2 2-2l-130-288c-11-20-32-31-54-31z m224-162l-47 47c45 46 73 108 73 177 0 55-18 105-47 146l30 67c52-56 83-131 83-213 0-87-35-166-92-224z" horiz-adv-x="1000" />
<glyph glyph-name="delete-alt" unicode="&#xea1d;" d="m500 788c-242 0-437-196-437-438s195-438 437-438 438 196 438 438-196 438-438 438z m230-304l-134-134 134-134c7-6 7-16 0-22l-74-74c-6-6-16-6-22 0l-134 134-134-134c-6-6-16-6-22 0l-74 74c-6 6-6 16 0 22l134 134-134 134c-6 6-6 16 0 22l74 74c6 7 16 7 22 0l134-134 134 134c6 7 16 7 22 0l74-74c7-6 7-16 0-22z" horiz-adv-x="1000" />
<glyph glyph-name="delete" unicode="&#xea1e;" d="m586 350l247 247c6 6 6 16 0 22l-64 64c-6 6-16 6-22 0l-247-247-247 247c-6 6-16 6-22 0l-64-64c-6-6-6-16 0-22l247-247-247-247c-6-6-6-16 0-22l64-64c6-6 16-6 22 0l247 247 247-247c6-6 16-6 22 0l64 64c6 6 6 16 0 22l-247 247z" horiz-adv-x="1000" />
<glyph glyph-name="details" unicode="&#xea1f;" d="m875 663h-750c-34 0-62-28-62-63v-500c0-34 28-62 62-62h750c35 0 63 28 63 62v500c0 35-28 63-63 63z m-562-380c-38 0-68 30-68 67 0 37 30 67 68 67s67-30 67-67c0-37-30-67-67-67z m187 0c-37 0-67 30-67 67 0 37 30 67 67 67s67-30 67-67c0-37-30-67-67-67z m188 0c-38 0-68 30-68 67 0 37 30 67 68 67s67-30 67-67c0-37-30-67-67-67z" horiz-adv-x="1000" />
<glyph glyph-name="down-arrow" unicode="&#xea20;" d="m831 466l-255-254-66-66c-6-6-16-6-22 0l-66 66-254 254c-6 6-6 16 0 22l66 66c6 7 16 7 22 0l243-243 243 243c6 7 16 7 22 0l67-66c6-6 6-16 0-22z" horiz-adv-x="1000" />
<glyph glyph-name="download" unicode="&#xea21;" d="m797-25h-594c-8 0-15 7-15 16v93c0 9 7 16 15 16h594c9 0 16-7 16-16v-93c0-9-7-16-16-16z m-172 500v250h-250v-250h-125l212-292c19-25 57-25 76 0l212 292h-125z" horiz-adv-x="1000" />
<glyph glyph-name="draw-shape" unicode="&#xea22;" d="m758 177c6 0 11 2 17 5 14 9 19 28 10 43-9 15-28 19-43 10-15-9-19-28-10-43 6-9 16-15 26-15z m-85 140c5 0 11 1 16 5 15 8 19 28 10 42-9 15-28 20-43 11-14-9-19-28-10-43 6-10 16-15 27-15z m-103 197c-14-9-19-28-10-42 6-10 16-15 27-15 5 0 11 1 16 4 15 9 19 28 10 43-9 15-28 19-43 10z m274-351c-41 0-75-27-88-63h-511c-4 10-9 19-16 28l252 412c6-2 13-2 19-2 52 0 94 42 94 93s-42 94-94 94-93-42-93-94c0-22 8-42 21-58l-252-413c-6 2-13 3-19 3-52 0-94-42-94-94s42-94 94-94c40 0 75 26 88 63h511c13-37 47-63 88-63 52 0 94 42 94 94s-42 94-94 94z" horiz-adv-x="1000" />
<glyph glyph-name="duplicate" unicode="&#xea23;" d="m719 506v-500c0-34-28-62-62-62h-500c-35 0-63 28-63 62v500c0 35 28 63 63 63h500c34 0 62-28 62-63z m125 250h-500c-34 0-62-28-62-62v-63h62v63h500v-500h-62v-63h62c35 0 63 28 63 63v500c0 34-28 62-63 62z" horiz-adv-x="1000" />
<glyph glyph-name="edit" unicode="&#xea24;" d="m657 632l125-125-532-532-187-63 62 188 532 532z m262 101l-36 36c-13 12-29 18-45 18-15 0-32-6-44-18l-75-74 126-126 74 75c12 12 19 28 19 44 0 16-7 32-19 45z" horiz-adv-x="1000" />
<glyph glyph-name="employees" unicode="&#xea25;" d="m313 350c-69 0-125 56-125 125 0 69 56 125 125 125s125-56 125-125c0-69-56-125-125-125z m500 188c0 69-56 125-125 125s-125-56-125-125c0-69 56-125 125-125s125 56 125 125z m-375-292v-146c0-34 28-62 62-62h375c35 0 63 28 63 62v146c0 0-91 104-250 104s-250-104-250-104z m-313-208h267c-10 18-17 39-17 62v182c-19 3-40 6-62 6-160 0-250-105-250-105v-83c0-34 28-62 62-62z" horiz-adv-x="1000" />
<glyph glyph-name="enclosed-up-arrow" unicode="&#xea26;" d="m884 341c0-207-168-375-375-375-81 0-156 26-217 69l254 254 68-68 50 238 0 0c2 10-1 21-8 28-8 8-19 10-29 8l0 1-235-53 66-65-255-254c-43 61-69 136-69 217 0 207 168 375 375 375s375-168 375-375z" horiz-adv-x="1000" />
<glyph glyph-name="eta" unicode="&#xea27;" d="m500 788c-242 0-437-196-437-438s195-438 437-438 438 196 438 438-196 438-438 438z m219-594l-241 107c-24 10-39 36-36 62l27 300h62l32-282 187-125-31-62z" horiz-adv-x="1000" />
<glyph glyph-name="eye-closed" unicode="&#xea28;" d="m306 149c-49 25-96 56-139 92-34 28-67 58-95 93-12 15-12 33 0 48 9 11 19 22 29 33 55 56 117 106 186 143 44 23 90 42 139 51 37 7 75 9 112 5l-40-81c-95-1-172-79-172-175 0-38 13-74 33-102l-53-107z m632 209c0-1 0-1 0-2 0 0 0 0 0-1 0-1 0-1-1-2-1-7-4-14-9-19-9-11-19-22-29-32-55-57-117-107-186-144-43-23-90-42-139-51-53-10-106-9-159 2-1 1-2 1-3 1l-68-135h-62l94 188 25 51c0 0 0 0 0 0l256 511h62l-69-139c66-25 128-65 183-111 34-28 67-58 95-93 5-5 8-12 9-19 0 0 0 0 1-2 0 0 0 0 0-1 0-1 0-1 0-2z m-263 0c0 57-28 107-70 139l-55-111c4-8 8-17 8-28 0-30-22-53-51-57l-56-111c16-5 32-8 49-8 97 0 175 79 175 176z" horiz-adv-x="1000" />
<glyph glyph-name="eye" unicode="&#xea29;" d="m938 361c-1 1-1 1-1 2-1 7-4 13-9 18-28 35-61 66-95 94-72 60-156 111-247 131-53 12-107 12-160 2-49-9-95-28-139-51-69-36-131-87-186-143-10-11-20-21-29-33-12-15-12-33 0-48 28-34 61-65 95-93 73-60 156-111 248-131 53-12 106-13 159-3 49 9 96 28 139 52 69 36 131 86 186 143 10 10 20 21 29 32 5 5 8 12 9 19 1 1 1 2 1 2 0 1 0 1 0 2 0 0 0 1 0 1 0 1 0 2 0 2 0 1 0 2 0 2z m-438-179c-96 0-174 78-174 175 0 97 78 176 174 176s175-79 175-176-78-175-175-175l0 0z m0 233c32 0 58-26 58-58s-26-58-58-58-57 26-57 58 25 58 57 58z" horiz-adv-x="1000" />
<glyph glyph-name="facebook" unicode="&#xea2a;" d="m570-88h-164v438h-110v150h110v88c0 126 33 200 177 200h121v-151h-77c-57 0-60-22-60-60v-77h137l-14-150h-120v-438z" horiz-adv-x="1000" />
<glyph glyph-name="fare-split" unicode="&#xea2b;" d="m500 725c207 0 375-168 375-375s-168-375-375-375-375 168-375 375 168 375 375 375m0 63c-242 0-437-196-437-438s195-438 437-438 438 196 438 438-196 438-438 438l0 0z m-221-659c57-56 135-91 221-91 173 0 313 139 313 312 0 86-35 164-92 221l-442-442z" horiz-adv-x="1000" />
<glyph glyph-name="file" unicode="&#xea2c;" d="m485 584h359c17 0 31-14 31-31v-15c0-18-14-32-31-32h-688c-17 0-31 14-31 32v46 78c0 18 14 32 31 32h240c8 0 16-4 22-9l45-92c8-7 14-9 22-9z m-422-176l55-374c2-16 15-28 31-28h702c16 0 29 12 31 28l55 374c3 19-12 36-31 36h-812c-19 0-34-17-31-36z" horiz-adv-x="1000" />
<glyph glyph-name="files" unicode="&#xea2d;" d="m750-56h-500c-69 0-125 56-125 125v375h750v-375c0-69-56-125-125-125z m-31 687h-437c-52 0-94-42-94-93v-32h625v32c0 51-42 93-94 93z m-31-406v94h-63v-63h-250v63h-62v-94c0-17 14-31 31-31h313c17 0 31 14 31 31z m-63 531h-250c-34 0-62-28-62-62v0h375v0c0 34-28 62-63 62z" horiz-adv-x="1000" />
<glyph glyph-name="free-rides" unicode="&#xea2e;" d="m854 162l-315-112c-26-8-53-12-80-12h-113l-33-63h-188l101 184c24 43 51 66 109 66h165c35 0 63-28 63-62l275 61c2 1 4 1 6 1 17 0 31-14 31-31 0-17-9-27-21-32z m-73 370c0-14-11-26-26-26h-13l8-31v-167c0-11-10-20-22-20h-19c-12 0-21 9-21 20v42h-375v-42c0-11-10-20-22-20h-19c-12 0-22 9-22 20v167l8 31h-13c-14 0-26 12-26 26 0 18 17 31 34 25l16-5 26 102c10 42 48 71 91 71h228c43 0 81-29 91-71l26-102 16 5c17 6 34-7 34-25z m-375-88c0 5-3 9-8 10l-85 21v-31c0-17 14-31 32-31h50c6 0 11 4 11 10v21z m282 31l-86-21c-5-1-8-5-8-10v-21c0-6 5-10 11-10h50c18 0 33 14 33 31v31z" horiz-adv-x="1000" />
<glyph glyph-name="geofence" unicode="&#xea2f;" d="m869 213l-103 297c16 16 26 39 26 64 0 49-40 89-88 88-38 0-70-25-82-59h-244c-12 35-44 60-82 59-49 0-88-40-87-89 0-25 10-47 26-63l-103-297c-40-8-69-44-69-87 0-49 39-89 88-89 38 1 70 26 82 61h535c11-35 44-61 83-61 48 1 87 41 87 90 0 42-30 78-69 86z m-572 271c36 0 68 24 80 56h246c13-33 45-56 82-56 1 0 2 1 3 1l98-282c-16-10-29-24-36-42h-539c-7 18-20 32-37 42l98 282c2 0 3-1 5-1z" horiz-adv-x="1000" />
<glyph glyph-name="github" unicode="&#xea30;" d="m498 719c-207 0-375-168-375-375 0-166 108-306 257-356 19-4 26 8 26 18 0 9-1 33-1 64-104-23-126 50-126 50-17 43-42 55-42 55-34 23 3 23 3 23 37-3 57-39 57-39 34-57 88-41 109-31 4 24 13 41 24 50-83 10-171 42-171 185 0 41 15 75 39 101-4 10-17 48 3 99 0 0 32 10 104-38 30 8 62 12 93 12 32 0 64-4 94-12 72 48 103 38 103 38 21-51 8-89 4-99 24-26 39-60 39-101 0-144-88-175-172-185 14-11 26-34 26-69 0-50-1-91-1-103 0-10 7-22 26-18 149 50 256 190 256 356 0 207-167 375-375 375z" horiz-adv-x="1000" />
<glyph glyph-name="google-plus" unicode="&#xea31;" d="m584 741h-205c-28 0-57-3-88-10-31-7-62-23-91-47-42-41-64-87-64-137 0-42 15-79 45-110 29-34 71-51 125-52 11 0 22 1 33 2-2-5-4-11-6-18-3-6-4-13-4-22 0-15 3-28 10-39 6-11 13-22 20-32-24 0-54-3-90-9-37-6-72-19-105-38-30-17-50-38-61-61-12-24-18-45-18-64 0-39 18-73 54-101 35-30 89-45 161-46 86 1 151 22 197 62 44 38 66 82 66 132-1 36-9 64-24 86-16 21-35 41-57 59l-35 28c-5 5-10 11-15 18-7 7-10 16-10 26 0 12 3 21 9 30 6 8 11 15 17 21 11 10 21 19 31 28 8 9 16 19 24 30 15 22 24 51 24 88 0 20-2 38-7 53-5 15-11 28-18 39-8 12-15 24-23 32-8 8-15 20-22 20h63l64 32z m-113-562c17-19 26-42 26-68 0-32-13-58-37-79-26-21-63-31-111-32-54 1-97 13-128 36-32 24-49 54-49 90 0 18 4 34 12 47 6 12 14 23 24 31 9 8 19 14 29 19 9 4 16 7 22 9 22 6 44 11 65 14 21 2 35 3 40 2 9 0 16 0 23-1 38-26 66-49 84-68z m-33 304c-2-14-8-28-17-41-18-18-40-28-67-29-22 0-41 7-57 20-17 13-30 29-41 48-22 40-33 79-33 116 0 28 7 54 23 76 18 22 41 33 69 34 21-1 40-7 56-18 16-13 28-29 38-49 21-41 31-82 31-123 0-9-1-21-2-34z m453-133h-94v-94h-78v94h-110v78h110v94h78v-94h94v-78z" horiz-adv-x="1000" />
<glyph glyph-name="graph" unicode="&#xea32;" d="m829 451l-166-293c-8-15-27-20-42-12l-276 156-150-265c-9-14-27-19-42-11l-44 25c-14 8-20 27-11 41l190 335c8 15 27 20 41 12l250-141c15-8 34-3 42 12l111 196-77 43 203 120c21 12 46-3 46-26l2-236-77 44z" horiz-adv-x="1000" />
<glyph glyph-name="heart-empty" unicode="&#xea33;" d="m703 698c4 0 7 0 11 0 92-6 167-91 166-190-1-42-1-107-108-215l-272-273-272 273c-107 108-107 172-108 215 0 99 74 184 166 190 11 0 22 0 32-1 72-11 114-57 142-106l27-47c6-10 21-10 27 0l27 48c31 55 89 106 162 106m0 58c-87 0-164-48-203-124-38 76-116 124-203 124-5 0-9 0-14 0-127-8-222-121-220-249 0-60 8-137 125-255l301-304c3-3 7-4 11-4 4 0 8 1 11 4l302 304c116 118 124 195 125 255 1 128-94 241-221 249-4 0-9 0-14 0l0 0z" horiz-adv-x="1000" />
<glyph glyph-name="heart" unicode="&#xea34;" d="m938 509c-1-59-9-136-125-253l-302-308c-3-3-7-4-11-4-4 0-8 1-11 4l-301 308c-117 117-125 194-125 253-2 127 93 239 220 247 93 5 174-43 217-117 43 74 124 122 217 117 127-8 222-120 221-247z" horiz-adv-x="1000" />
<glyph glyph-name="help" unicode="&#xea35;" d="m500 788c-242-2-437-196-437-438s195-438 437-438 439 196 438 438c-2 244-198 439-438 438z m63-672c0-9-7-16-16-16h-94c-8 0-15 7-15 16v93c0 9 7 16 15 16h94c9 0 16-7 16-16v-93z m125 297c0-69-56-125-125-125h-110c-8 0-15 7-15 15v94c0 9 7 16 15 16h110v62h-172c-9 0-16 7-16 16v93c0 9 7 16 16 16h172c69 0 125-56 125-125v-62z" horiz-adv-x="1000" />
<glyph glyph-name="home" unicode="&#xea36;" d="m937 389c0-3 0-7-3-10l-17-23c-3-3-8-6-12-6-4 0-7 2-10 4l-82 66v-382c0-35-28-63-63-63h-187v172c0 9-7 16-16 16h-94c-8 0-15-7-15-16v-172h-188c-34 0-62 28-62 63v382l-83-66c-3-2-6-4-10-4-4 0-9 3-12 6l-17 23c-2 3-3 7-3 10 0 4 2 9 6 12l382 307c15 11 31 17 49 17 18 0 34-6 49-17l383-307c3-3 5-8 5-12z" horiz-adv-x="1000" />
<glyph glyph-name="id-card" unicode="&#xea37;" d="m875 663h-750c-34 0-62-28-62-63v-500c0-34 28-62 62-62h750c35 0 63 28 63 62v500c0 35-28 63-63 63z m-562-122c36 0 66-29 66-66 0-37-30-66-66-66s-67 29-67 66c0 37 30 66 67 66z m125-347c0-17-14-31-32-31h-187c-17 0-31 14-31 31v127c0 0 58 34 125 34s125-34 125-34v-127z m375-31h-250v62h250v-62z m0 125h-250v62h250v-62z m0 125h-250v125h250v-125z" horiz-adv-x="1000" />
<glyph glyph-name="info" unicode="&#xea38;" d="m500 788c-242 0-437-196-437-438s195-438 437-438 438 196 438 438-196 438-438 438z m63-672c0-9-7-16-16-16h-94c-8 0-15 7-15 16v281c0 9 7 16 15 16h94c9 0 16-7 16-16v-281z m0 375c0-9-7-16-16-16h-94c-8 0-15 7-15 16v93c0 9 7 16 15 16h94c9 0 16-7 16-16v-93z" horiz-adv-x="1000" />
<glyph glyph-name="instagram" unicode="&#xea39;" d="m726 346c0-125-101-227-227-227-125 0-226 102-226 227 0 15 1 30 4 44h-153v-302c0-64 53-117 118-117h515c65 0 117 53 117 117v302h-152c3-14 4-29 4-44z m31 375h-515c-65 0-118-52-118-117v-127h190c41 58 109 96 185 96s144-38 185-96h190v127c0 65-52 117-117 117z m57-145c0-11-9-21-21-21h-62c-12 0-21 10-21 21v63c0 12 9 21 21 21h62c12 0 21-9 21-21v-63z m-175-230c0 77-63 140-140 140s-139-63-139-140 62-139 139-139 140 62 140 139z" horiz-adv-x="1000" />
<glyph glyph-name="key" unicode="&#xea3a;" d="m867 106c-1 7-4 14-9 19l-49 4-22 22-11 56-67 21-21 67-68 68c-8 8-11 21-7 33 10 28 14 60 13 92-7 129-116 234-245 237-143 3-259-113-256-256 3-129 108-238 237-245 32-1 64 3 93 13 11 4 24 1 33-7l237-238c5-5 12-8 19-9l73-8c10-1 19 2 26 9l23 23c7 7 10 16 9 26l-8 73z m-558 373c-35 0-62 28-62 62s27 63 62 63 62-28 62-63-28-62-62-62z" horiz-adv-x="1000" />
<glyph glyph-name="layers" unicode="&#xea3b;" d="m921 243c22-13 22-47 0-60l-404-235c-10-6-23-6-33 0l-404 235c-23 13-23 47 0 60l8 4 412-240 413 240 8-4z m-8 141l-413-240-412 240-8-4c-23-13-23-47 0-60l404-235c10-6 23-6 33 0l404 235c22 13 22 47 0 60l-8 4z m-396-161l404 234c22 14 22 47 0 60l-404 235c-10 6-23 6-33 0l-404-235c-23-13-23-46 0-60l404-234c10-6 23-6 33 0z" horiz-adv-x="1000" />
<glyph glyph-name="left-arrow" unicode="&#xea3c;" d="m616 19l-254 254-66 66c-6 6-6 16 0 22l66 66 254 255c6 6 16 6 22 0l66-67c7-6 7-16 0-22l-243-243 243-243c7-6 7-16 0-22l-66-66c-6-6-16-6-22 0z" horiz-adv-x="1000" />
<glyph glyph-name="linkedin" unicode="&#xea3d;" d="m753 725h-503c-69 0-125-56-125-125v-498c0-71 56-127 125-127h500c69 0 125 56 125 125v500c2 69-54 125-122 125z m-399-625h-112v340h112v-340z m-56 387l0 0c-40 0-63 26-63 58s25 59 63 59c39 0 63-26 63-59 2-32-24-58-63-58z m464-387h-112v182c0 46-16 77-58 77-31 0-49-21-59-42-2-7-4-17-4-28v-189h-112c0 0 2 308 0 340h112v-49c14 24 42 56 102 56 75 0 131-49 131-154l0-193 0 0z" horiz-adv-x="1000" />
<glyph glyph-name="location" unicode="&#xea3e;" d="m438 350h-313l725 372c2 1 6 3 10 3 8 0 15-7 15-15 0-2 0-5-1-8l-373-727 0 313c0 34-28 62-63 62z" horiz-adv-x="1000" />
<glyph glyph-name="lock" unicode="&#xea3f;" d="m750-103h-500c-34 0-62 28-62 62v313c0 34 28 62 62 62h500c35 0 63-28 63-62v-313c0-34-28-62-63-62z m-62 525v157c0 111-91 200-201 192-99-6-174-96-174-198l0-151c0-14 11-25 24-25h76c14 0 25 11 25 25v162c0 52 15 63 62 63 51 0 63-15 63-63v-162c0-14 11-25 24-25h76c14 0 25 11 25 25z" horiz-adv-x="1000" />
<glyph glyph-name="lost" unicode="&#xea40;" d="m827 482l-105 51c-5 2-9 3-14 3h-31c-8 37-41 65-80 65-39 0-72-28-79-65h-18-18c-7 37-40 65-79 65-39 0-72-28-80-65h-31c-4 0-9-1-13-3l-106-51c-68-35-114-107-110-190 4-98 82-181 180-192 85-9 161 36 199 104 8 15 24 24 41 24h34c17 0 33-9 41-24 38-68 114-113 200-104 97 11 175 94 179 192 4 83-42 155-110 190z m-562-318c-76 0-137 62-137 137 0 76 61 138 137 138 74 0 134-60 137-133v-9c-3-73-63-133-137-133z m470 0c-74 0-134 60-137 133v9c3 73 63 133 137 133 76 0 138-62 138-138 0-75-62-137-138-137z" horiz-adv-x="1000" />
<glyph glyph-name="mail-open" unicode="&#xea41;" d="m500 725l-406-232c-19-11-31-32-31-54v-401c0-35 28-63 62-63h750c35 0 63 28 63 63v401c0 22-12 43-32 54l-406 232z m375-286l-375-214-375 214v0l375 214 375-214v0z" horiz-adv-x="1000" />
<glyph glyph-name="mail-sent" unicode="&#xea42;" d="m934 280l-213-214c-9-8-20-13-32-13-11 0-23 5-31 13l-102 102c-5 5-5 12 0 16l53 53c2 2 5 3 8 3s5-1 7-3l65-65 177 176c2 3 5 4 7 4s6-1 8-4l53-52c5-5 5-12 0-16z m-246 304c0 35-28 63-63 63h-500c-34 0-62-28-62-63l312-156 313 156z m-177-356l53 53c14 14 33 22 53 22s38-8 52-22l19-19v244l-313-156-312 156v-265c0-35 28-63 62-63h365c1 19 8 37 21 50z" horiz-adv-x="1000" />
<glyph glyph-name="mail" unicode="&#xea43;" d="m500 272l438 250v-422c0-34-28-62-63-62h-750c-34 0-62 28-62 62v422l437-250z m438 328c0 35-28 63-63 63h-750c-34 0-62-28-62-63l437-250 438 250z" horiz-adv-x="1000" />
<glyph glyph-name="menu" unicode="&#xea44;" d="m875 647v-94c0-8-7-15-16-15h-718c-9 0-16 7-16 15v94c0 9 7 16 16 16h718c9 0 16-7 16-16z m-16-234h-718c-9 0-16-7-16-16v-94c0-8 7-15 16-15h718c9 0 16 7 16 15v94c0 9-7 16-16 16z m0-250h-718c-9 0-16-7-16-16v-94c0-8 7-15 16-15h718c9 0 16 7 16 15v94c0 9-7 16-16 16z" horiz-adv-x="1000" />
<glyph glyph-name="message-phone" unicode="&#xea45;" d="m63 569v-313c0-69 56-125 125-125h62v-109c0-9 7-16 15-16 3 0 6 1 8 2l227 123h188v563h-500c-69 0-125-56-125-125z m437-313h-312v63h312v-63z m63 125h-375v63h375v-63z m0 125h-375v63h375v-63z m375 63v-313c0-69-56-125-125-125h-63v157l72 24c13 4 22 16 22 29v143c0 13-9 25-22 29l-72 25v156h63c69 0 125-56 125-125z" horiz-adv-x="1000" />
<glyph glyph-name="messages" unicode="&#xea46;" d="m813 694h-625c-69 0-125-56-125-125v-313c0-69 56-125 125-125h62v-109c0-9 7-16 15-16 3 0 6 1 8 2l227 123h313c69 0 125 56 125 125v313c0 69-56 125-125 125z m-125-375h-375v62h375v-62z m62 125h-500v62h500v-62z" horiz-adv-x="1000" />
<glyph glyph-name="minus-alt" unicode="&#xea47;" d="m500 788c-242 0-437-196-437-438s195-438 437-438 438 196 438 438-196 438-438 438z m234-500h-468c-9 0-16 7-16 15v94c0 9 7 16 16 16h468c9 0 16-7 16-16v-94c0-8-7-15-16-15z" horiz-adv-x="1000" />
<glyph glyph-name="minus" unicode="&#xea48;" d="m859 288h-718c-9 0-16 7-16 15v94c0 9 7 16 16 16h718c9 0 16-7 16-16v-94c0-8-7-15-16-15z" horiz-adv-x="1000" />
<glyph glyph-name="moon" unicode="&#xea49;" d="m814 77c-67-62-156-100-254-100-205 0-372 168-372 375s167 375 372 375c3 0 5 0 8 0-74-69-119-167-119-275 0-205 162-371 365-375z" horiz-adv-x="1000" />
<glyph glyph-name="note-alt" unicode="&#xea4a;" d="m573 560v161l107-108 107-107h-161c-29 0-53 24-53 54z m208-101v-435c0-30-18-49-48-49h-160-322c-29 0-48 19-48 49v482 161c0 30 19 58 48 58h265v-218c0-29 28-48 58-48h207z m-369-151c0-44 36-80 80-80 45 0 81 36 81 80 0 45-36 81-81 81-44 0-80-36-80-81z m244-188c0 0-61 68-164 68s-164-68-164-68v-26c0-15 16-25 30-25h268c15 0 30 10 30 25v26z" horiz-adv-x="1000" />
<glyph glyph-name="note" unicode="&#xea4b;" d="m805 653v-361-16h-63-187c-35 0-63-28-63-62v-186-62h-250c-34 0-62 28-62 62v264 298 63c0 35 28 63 62 63h500c35 0 63-28 63-63z m-176-449c-34 0-62-28-62-63v-56-119l119 119 119 119h-119-57z" horiz-adv-x="1000" />
<glyph glyph-name="notification-mute" unicode="&#xea4c;" d="m875 48v-73h-287c-13-36-47-63-88-63s-75 27-88 63h-68l-31-63h-63l31 63 331 662v0l76 151h62l-91-182c56-45 91-114 91-191v-2-121c0-72 31-141 85-189l24-20c10-9 16-22 16-35z m-285 670l-371-743h-94v73c0 13 6 26 16 35l24 20c54 48 85 117 85 189v121 2c0 109 70 201 168 234-8 13-12 29-12 45 0 52 42 94 94 94 43 0 80-30 90-70z m-59-24c0 17-14 31-31 31s-31-14-31-31c0-17 14-31 31-31s31 14 31 31z" horiz-adv-x="1000" />
<glyph glyph-name="notification" unicode="&#xea4d;" d="m875 48c0 13-6 26-16 35l-24 20c-54 48-85 117-85 189v121 2c0 109-70 201-168 234 8 13 12 29 12 45 0 52-42 94-94 94s-94-42-94-94c0-16 4-32 12-45-98-33-168-125-168-234v-2-121c0-72-31-141-85-189l-24-20c-10-9-16-22-16-35v-73h287c13-36 47-63 88-63s75 27 88 63h287v73z m-375 677c17 0 31-14 31-31 0-17-14-31-31-31s-31 14-31 31c0 17 14 31 31 31z" horiz-adv-x="1000" />
<glyph glyph-name="phone" unicode="&#xea4e;" d="m688 788h-375c-35 0-63-28-63-63v-750c0-35 28-63 63-63h375c34 0 62 28 62 63v750c0 35-28 63-62 63z m-125-797c0-9-7-16-16-16h-94c-8 0-15 7-15 16v31c0 9 7 16 15 16h94c9 0 16-7 16-16v-31z m125 109h-375v563h375v-563z" horiz-adv-x="1000" />
<glyph glyph-name="picture" unicode="&#xea4f;" d="m859 725h-718c-9 0-16-7-16-16v-718c0-9 7-16 16-16h718c9 0 16 7 16 16v718c0 9-7 16-16 16z m-46-562h-625v500h625v-500z m-180 285l128-173c16-21 1-50-24-50h-197-122-153c-29 0-42 37-19 55l94 78c11 9 28 9 39 0l60-50c14-11 34-9 45 6l99 134c13 16 38 16 50 0z m-227 74c0-35-28-63-62-63s-63 28-63 63 28 62 63 62 62-28 62-62z" horiz-adv-x="1000" />
<glyph glyph-name="pin" unicode="&#xea50;" d="m563 296v-368c0-9-7-16-16-16h-94c-8 0-15 7-15 16v368c-108 28-188 125-188 242 0 138 112 250 250 250s250-112 250-250c0-117-80-214-187-242z" horiz-adv-x="1000" />
<glyph glyph-name="place" unicode="&#xea51;" d="m500 788c-173 0-312-138-312-313 0-95 31-172 93-265l206-291c3-4 8-7 13-7 5 0 10 3 13 7l206 291c62 93 94 170 94 265 0 175-140 313-313 313z m0-504c-106 0-191 85-191 191s85 191 191 191 191-85 191-191-85-191-191-191z" horiz-adv-x="1000" />
<glyph glyph-name="plus-alt" unicode="&#xea52;" d="m500 788c-242 0-437-196-437-438s195-438 437-438 438 196 438 438-196 438-438 438z m234-500h-171v-172c0-9-7-16-16-16h-94c-8 0-15 7-15 16v172h-172c-9 0-16 7-16 15v94c0 9 7 16 16 16h172v171c0 9 7 16 15 16h94c9 0 16-7 16-16v-171h171c9 0 16-7 16-16v-94c0-8-7-15-16-15z" horiz-adv-x="1000" />
<glyph glyph-name="plus" unicode="&#xea53;" d="m875 397v-94c0-8-7-15-16-15h-296v-297c0-9-7-16-16-16h-94c-8 0-15 7-15 16v297h-297c-9 0-16 7-16 15v94c0 9 7 16 16 16h297v296c0 9 7 16 15 16h94c9 0 16-7 16-16v-296h296c9 0 16-7 16-16z" horiz-adv-x="1000" />
<glyph glyph-name="power" unicode="&#xea54;" d="m672 788c9 0 18-9 15-20l-124-355h234c9 0 16-8 16-16 0-4-2-8-5-11l-469-469c-3-3-7-5-12-5-8 0-17 10-14 20l125 356h-235c-9 0-15 7-15 15 0 4 1 8 4 11l468 468c3 4 8 6 12 6z" horiz-adv-x="1000" />
<glyph glyph-name="printer" unicode="&#xea55;" d="m938 350c0 35-28 63-63 63h-62v125l-250 250h-313c-34 0-62-28-62-63v-312h-63c-34 0-62-28-62-63v-312h125v-63c0-35 28-63 62-63h500c35 0 63 28 63 63v63h125v312z m-375 349l161-161h-146c-8 0-15 7-15 15v146z m-313 26h250v-172c0-43 35-78 78-78h172v-62h-500v312z m0-750v250h500v-250h-500z m594 313c-17 0-31 14-31 31 0 17 14 31 31 31s31-14 31-31c0-17-14-31-31-31z" horiz-adv-x="1000" />
<glyph glyph-name="profile" unicode="&#xea56;" d="m688 538c0-104-84-188-188-188s-187 84-187 188 83 187 187 187 188-84 188-187z m-188-282c-239 0-375-156-375-156v-62c0-35 28-63 63-63h625c34 0 62 28 62 63v62c0 0-136 156-375 156z" horiz-adv-x="1000" />
<glyph glyph-name="promo-alt" unicode="&#xea57;" d="m781 756h-239l-430-427c-11-12-18-26-18-41 0-17 5-35 18-48l278-278c13-13 31-18 48-18 15 0 29 6 41 18l427 430v239c0 69-56 125-125 125z m-62-250c-35 0-63 28-63 63 0 34 28 62 63 62s62-28 62-62c0-35-28-63-62-63z" horiz-adv-x="1000" />
<glyph glyph-name="promo" unicode="&#xea58;" d="m891 418c-43 16-60 68-35 107 36 56-15 127-79 110-45-12-89 20-92 66-3 66-87 93-129 42-29-36-83-36-112 0-42 51-126 24-129-42-3-46-47-78-91-66-65 17-116-54-80-110 25-39 8-91-35-107-62-24-62-112 0-136 43-16 60-68 35-107-36-56 15-127 80-110 44 12 88-20 91-66 3-66 87-93 129-42 29 36 83 36 112 0 42-51 126-24 129 42 3 46 47 78 92 66 64-17 115 54 79 110-25 39-8 91 35 107 62 24 62 112 0 136z" horiz-adv-x="1000" />
<glyph glyph-name="receipt" unicode="&#xea59;" d="m750 756l-62 32-63-32-62 32-63-32-62 32-63-32-62 32-63-32-62 32v-844l62-32 63 32 62-32 63 32 62-32 63 32 62-32 63 32 62-32 63 32v844l-63-32z m-187-468h-313v62h313v-62z m0 125h-313v62h313v-62z m0 125h-313v62h313v-62z m187-438h-125v63h125v-63z m0 188h-125v62h125v-62z m0 125h-125v62h125v-62z m0 125h-125v62h125v-62z" horiz-adv-x="1000" />
<glyph glyph-name="reset" unicode="&#xea5a;" d="m875 336v0c0-199-153-363-348-379-17-1-32 13-32 31 0 25 0 59 0 82 0 16 12 28 28 30 118 13 210 114 210 236v0c0 131-107 238-238 238s-238-107-238-238h114l-161-265c-12-20-41-20-53 0l-157 265h115c0 210 170 380 380 380s380-170 380-380z" horiz-adv-x="1000" />
<glyph glyph-name="right-arrow" unicode="&#xea5b;" d="m362 19l-66 66c-6 6-6 16 0 22l243 243-243 243c-6 6-6 16 0 22l66 67c6 6 16 6 22 0l254-255 66-66c7-6 7-16 0-22l-66-66-254-254c-6-7-16-7-22 0z" horiz-adv-x="1000" />
<glyph glyph-name="route-dot" unicode="&#xea5c;" d="m500 725c207 0 375-168 375-375s-168-375-375-375-375 168-375 375 168 375 375 375m0 63c-242 0-437-196-437-438s195-438 437-438c242 0 438 196 438 438s-196 438-438 438l0 0z m0-313c-69 0-125-56-125-125s56-125 125-125 125 56 125 125-56 125-125 125z" horiz-adv-x="1000" />
<glyph glyph-name="search" unicode="&#xea5d;" d="m866 94l-184 184c-12 13-32 13-44 0l-8-7-55 55c31 42 50 93 50 149 0 138-112 250-250 250s-250-112-250-250 112-250 250-250c56 0 107 19 149 50l55-55-7-8c-13-12-13-32 0-44l184-184c6-6 13-9 21-9 9 0 17 3 23 9l66 66c6 6 9 14 9 22 0 9-3 16-9 22z m-682 381c0 106 86 191 191 191 106 0 191-85 191-191 0-50-19-96-51-130l-10-10c-34-32-80-51-130-51-105 0-191 86-191 191z" horiz-adv-x="1000" />
<glyph glyph-name="send" unicode="&#xea5e;" d="m869 341c0 10-6 19-15 23l0 1-695 347 0 0c-4 2-8 4-13 4-15 0-27-12-27-27 0-4 1-7 2-10l0 0 0 0c0 0 0 0 0-1l107-267c0 0 0 0 0-1l1 0 0-1c4-7 11-12 19-14l1 0 2 0c1 0 1-1 2-1 0 0 0 0 0 0l435-39 0 0c8 0 14-7 14-14 0-8-6-14-14-14l0 0-435-40c0 0 0 0 0 0-1 0-1 0-2 0l-2 0-1-1c-8-1-15-6-19-14l0 0-1-1c0 0 0 0 0-1l-107-267c0 0 0 0 0 0l0 0 0-1c-1-3-2-6-2-10 0-14 12-26 27-26 5 0 9 1 13 4l0 0 695 347 0 0c9 5 15 13 15 24z" horiz-adv-x="1000" />
<glyph glyph-name="settings" unicode="&#xea5f;" d="m855 570l-31-6c-65-13-123 45-110 110l6 31c3 15-5 29-18 35l-69 28c-13 6-29 1-38-11l-17-26c-37-56-119-56-156 0l-17 26c-9 12-25 17-38 11l-68-28c-14-6-22-20-19-35l6-31c13-65-45-123-110-110l-31 6c-15 3-29-5-35-18l-28-69c-6-13-1-29 11-38l26-17c56-37 56-119 0-156l-26-17c-12-9-17-25-11-38l28-68c6-14 20-22 35-19l31 6c65 13 123-45 110-110l-6-31c-3-15 5-29 19-35l68-28c13-6 29-1 38 11l17 26c37 56 119 56 156 0l17-26c9-12 25-17 38-11l69 28c13 6 21 20 18 35l-6 31c-13 65 45 123 110 110l31-6c15-3 29 5 35 19l28 68c6 13 1 29-11 38l-26 17c-56 37-56 119 0 156l26 17c12 9 17 25 11 38l-28 69c-6 13-20 21-35 18z m-355-412c-106 0-192 86-192 192s86 192 192 192 192-86 192-192-86-192-192-192z" horiz-adv-x="1000" />
<glyph glyph-name="share-alt" unicode="&#xea60;" d="m813 725h-313l101-101-288-461 461 288 101-101v313c0 34-28 62-62 62z m-63-375v-250h-500v500h250l9 14-111 111h-148c-69 0-125-56-125-125v-500c0-69 56-125 125-125h500c69 0 125 56 125 125v148l-111 111-14-9z" horiz-adv-x="1000" />
<glyph glyph-name="share" unicode="&#xea61;" d="m906 69c0-87-70-157-156-157s-156 70-156 157c0 7 0 13 1 20l-248 139c-26-21-60-34-97-34-86 0-156 70-156 156s70 156 156 156c37 0 71-13 97-34l248 139c-1 7-1 14-1 20 0 87 70 157 156 157s156-70 156-157-70-156-156-156c-37 0-71 13-97 34l-248-139c1-7 1-13 1-20s0-13-1-20l248-139c26 21 60 34 97 34 86 0 156-70 156-156z" horiz-adv-x="1000" />
<glyph glyph-name="sketch" unicode="&#xea62;" d="m936 456c1 3 1 6 1 8 0 1 0 1 0 1 0 3 0 6-1 8 0 1 0 1 0 2 0 0-1 1-1 1-1 2-2 4-3 6 0 0 0 0 0 0l-130 161c0 0-1 1-2 1 0 1 0 1-1 2-1 1-3 2-5 3 0 0 0 0 0 0l-141 73c-4 2-8 3-12 3h-282c-4 0-8-1-12-3l-141-73c0 0 0 0 0 0-2-1-3-2-5-3-1-1-1-1-1-2-1 0-1-1-2-1l-130-161c0 0 0 0 0 0-1-2-2-4-3-6 0 0-1-1-1-1 0-1 0-1 0-2-1-2-1-5-1-8 0 0 0 0 0-1 0-2 0-5 1-8 0 0 0 0 1 0 1-3 2-6 4-8 0 0 0 0 0 0l0 0c0 0 0 0 0 0l412-464c0-1 0-1 1-1 0 0 0-1 0-1 1 0 1 0 1 0 0 0 0-1 1-1 0-1 1-1 2-2 1 0 2-1 2-1 1 0 2-1 3-1 0 0 0 0 1-1 0 0 0 0 0 0 1 0 1 0 2 0 2-1 4-1 6-1 2 0 4 0 6 1 1 0 1 0 2 0 0 0 0 0 0 0 1 1 1 1 1 1 1 0 2 1 3 1 0 0 1 1 2 1 1 1 2 1 3 2 0 0 0 1 0 1 0 0 1 0 1 0 0 0 0 1 0 1 1 0 1 0 1 1l412 464c0 0 0 0 0 0l0 0c0 0 0 0 0 0 2 2 3 5 5 8 0 0 0 0 0 0z m-711 137l101-52-53-133-144 67 96 118z m551 0l95-118-144-67-53 133 102 52z m-101-194h-350l51 128h248l51-128z m-6-52l-169-294-169 294h338z m-400 6l83-146-161 182 78-36z m463 0l78 36-162-182 84 146z m-367 320h270l90-47-90-47h-270l-90 47 90 47z" horiz-adv-x="1000" />
<glyph glyph-name="skip" unicode="&#xea63;" d="m931 569h0v-437c0-18-14-31-32-31h0l0 0h-31l0 0h0c-17 0-31 13-31 31l0 0v170l-342-197-1 0c-4-3-9-4-15-4-17 0-31 13-31 31v172l-346-199 0 0c-4-3-9-4-15-4-17 0-31 13-31 31v437c0 17 14 31 31 31 6 0 11-2 15-5l0 1 346-200v173c0 17 14 31 31 31 6 0 11-2 15-5l1 1 342-198v171l0 0c0 17 14 31 31 31l0 0h31l0 0c18 0 32-14 32-31l0 0z" horiz-adv-x="1000" />
<glyph glyph-name="star" unicode="&#xea64;" d="m516 745l101-304h304c16 0 23-22 9-31l-245-166 93-278c6-15-12-28-26-19l-252 171-252-171c-14-10-32 3-26 19l91 279-243 165c-14 9-7 31 10 31h303l101 304c5 15 27 15 32 0z" horiz-adv-x="1000" />
<glyph glyph-name="steering-wheel" unicode="&#xea65;" d="m500 788c-242 0-437-196-437-438s195-438 437-438 438 196 438 438-196 438-438 438z m0-58c164 0 304-105 357-250 9-24-11-48-36-43l-33 8c-95 20-191 30-288 30s-193-10-288-30l-33-8c-25-5-44 19-36 43 53 145 193 250 357 250z m67-380c0-37-30-67-67-67s-67 30-67 67c0 37 30 67 67 67s67-30 67-67z m-414-43l35 7c80 18 142-69 100-140l-34-56c-11-18-38-21-52-3-35 44-60 97-73 154-3 17 7 34 24 38z m215-313c-21 8-26 35-12 51 39 42 94 60 144 60 50 0 105-18 144-60 15-16 9-43-12-51-41-15-86-24-132-24s-91 9-132 24z m378 124l-33 56c-43 71 19 158 100 140l34-7c17-4 27-21 24-38-13-57-38-110-73-154-14-18-41-15-52 3z" horiz-adv-x="1000" />
<glyph glyph-name="stopwatch" unicode="&#xea66;" d="m513 293c0-1 0-1 0-2 0-24-20-43-44-43s-44 19-44 43c0 1 0 1 0 2l0 0 22 218 0 2h0 44 0l0-2 22-218 0 0z m393 49v-109c0-4-3-8-8-8h-59c-30-177-184-313-370-313-207 0-375 168-375 376 0 185 135 340 312 369v68h-54c-5 0-8 4-8 8v47c0 4 3 8 8 8h234c4 0 8-4 8-8v-47c0-4-4-8-8-8h-55v-68c157-26 281-150 308-307h59c5 0 8-3 8-8z m-137-54c0 165-135 300-300 300s-300-135-300-300 134-301 300-301 300 135 300 301z" horiz-adv-x="1000" />
<glyph glyph-name="sun" unicode="&#xea67;" d="m282 77c0-31-25-55-55-55s-55 24-55 55c0 30 25 54 55 54s55-24 55-54z m-165 328c-30 0-54-25-54-55 0-30 24-55 54-55s55 25 55 55c0 30-24 55-55 55z m110 164c30 0 55 24 55 54 0 31-25 55-55 55s-55-24-55-55c0-30 25-54 55-54z m547 0c30 0 54 24 54 54 0 31-24 55-54 55s-55-24-55-55c0-30 25-54 55-54z m-274 109c30 0 55 25 55 55 0 30-25 55-55 55s-54-25-54-55c0-30 24-55 54-55z m0-656c-30 0-54-25-54-55 0-30 24-55 54-55s55 25 55 55c0 30-25 55-55 55z m274 109c-30 0-55-24-55-54 0-31 25-55 55-55s54 24 54 55c0 30-24 54-54 54z m109 274c-30 0-55-25-55-55 0-30 25-55 55-55s55 25 55 55c0 30-25 55-55 55z m-383 164c-121 0-218-98-218-219s97-219 218-219 219 98 219 219-98 219-219 219z" horiz-adv-x="1000" />
<glyph glyph-name="support" unicode="&#xea68;" d="m736-18c155 99 232 290 190 469-42 175-192 311-371 333-182 23-363-73-445-236-83-163-53-365 71-497 126-135 330-176 498-100 20 9 39 19 57 31z m-117 223c-63-52-156-56-224-10-63 42-94 121-78 195 16 74 77 132 151 145 77 13 156-24 195-92 44-78 26-181-44-238-3-2 1 1 0 0z m-494 145c0 49 10 98 29 144 19-9 39-17 59-25 13-5 26-11 39-16 6-3 16-4 16-10 1-4-5-13-6-17-2-7-4-14-6-21-3-14-5-29-6-44-1-28 3-57 11-84 1-5 9-20 7-23-1-1-7-3-9-4-11-5-23-9-35-14-23-10-47-20-70-29-19 45-29 94-29 143z m750 0c0-49-10-98-29-143-19 8-39 16-59 24-13 5-26 11-39 16-6 3-16 4-16 10 0 4 5 13 6 17 2 7 4 14 6 21 3 15 5 29 6 44 1 28-3 57-11 84-1 5-9 20-7 23 1 2 7 3 9 4 12 5 23 10 35 14 24 10 47 20 70 30 19-46 29-95 29-144z m-231 346c-9-19-17-39-25-59-5-13-11-26-16-39-3-6-4-16-10-16-4 0-13 5-17 6-7 2-14 4-21 6-14 3-29 5-44 6-28 1-57-3-84-11-5-1-20-9-23-7-1 1-3 7-4 9-5 12-9 23-14 35-10 24-20 47-29 70 91 38 195 38 287 0z m-287-692c8 19 16 39 24 59 5 13 11 26 16 39 3 6 4 16 10 16 4 1 13-5 17-6 7-2 14-4 21-6 15-3 29-5 44-6 28-1 57 3 84 11 5 1 20 9 23 7 2-1 3-7 4-9 5-11 10-23 14-35 10-23 20-47 30-70-92-38-196-38-287 0z" horiz-adv-x="1000" />
<glyph glyph-name="surge" unicode="&#xea69;" d="m875 515v-329c0-34-18-65-46-81l-282-165c-29-17-65-17-94 0l-50 30 273 419c7 10 0 24-13 24h-100l90 286 176-103c28-16 46-47 46-81z m-551-203l273 419-50 29c-29 17-65 17-94 0l-281-164c-29-16-47-47-47-81v-329c0-34 18-65 47-81l176-103 90 286h-101c-13 0-20 14-13 24z" horiz-adv-x="1000" />
<glyph glyph-name="thumbs-up" unicode="&#xea6a;" d="m844 444c19 0 33-16 31-35l-55-438c-2-15-15-27-31-27h-39v500h94z m-422 313h-47c-34 0-62-28-62-63v-46c0-31 6-63 17-92l45-112h-187v-2c-36-7-63-38-63-76 0-26 13-48 32-63-19-14-32-36-32-62 0-30 17-56 43-69-7-12-12-26-12-40 0-41 31-73 70-78-7-15-10-34-4-53 9-35 43-57 79-57h37c25 0 49 2 73 7l277 56v375l-196 195c-35 35-54 82-54 132v32c0 9-7 16-16 16z" horiz-adv-x="1000" />
<glyph glyph-name="trash" unicode="&#xea6b;" d="m875 663c0-18-14-32-31-32h-688c-17 0-31 14-31 32v31c0 17 14 31 31 31h172c17 0 31 14 31 31v0c0 18 14 32 32 32h218c18 0 32-14 32-32v0c0-17 14-31 31-31h172c17 0 31-14 31-31v-31z m-64-127l-28-594c-1-16-15-29-32-29h-502c-17 0-31 13-32 29l-28 594c-1 18 13 33 31 33h560c18 0 32-15 31-33z m-420-530l-16 485h-62l15-485h63z m140 485h-62v-485h62v485z m157 0h-63l-16-485h63l16 485z" horiz-adv-x="1000" />
<glyph glyph-name="trip-history" unicode="&#xea6c;" d="m934 401c30-265-176-488-434-488-236 0-429 187-437 421-1 9 7 16 15 16h27c8 0 15-7 15-15 8-202 175-365 380-365 214 0 387 179 379 395-7 195-168 356-363 365-103 4-197-34-268-97l49-48-175-54c-12-4-23 7-20 19l54 175 51-51c92 84 220 129 359 109 193-29 347-188 368-382z m-434-301c-138 0-250 112-250 250s112 250 250 250 250-112 250-250-112-250-250-250z m-13 222l138-61 18 36-108 71-17 170h-36l-16-180c-1-15 7-30 21-36z" horiz-adv-x="1000" />
<glyph glyph-name="trips" unicode="&#xea6d;" d="m938 180c0-52-42-94-94-94s-94 42-94 94c0 14 3 28 9 40l-71 72-249-249c-9-9-21-13-33-13-12 0-24 4-33 13l-196 197c-9 9-14 21-14 33 0 13 5 25 14 33l91 92-71 72c-12-6-26-9-40-9-52 0-94 41-94 93-1 52 41 94 93 94 52 1 94-41 94-93 0-15-3-28-9-41l83-83c8-8 13-20 13-33 0-12-5-24-13-33l-92-92 174-174 248 248c19 18 48 18 67 0l82-83c13 6 26 9 41 9 52 0 94-42 94-93z" horiz-adv-x="1000" />
<glyph glyph-name="trophy" unicode="&#xea6e;" d="m859 663h-109c0 0 0 33 0 47 0 9-7 15-15 15l-469 0c-9 0-16-7-16-16v-46h-109c-9 0-16-7-16-16v-141c0-56 36-104 89-120l89-27c80-24 135-97 135-180v-40c0-24-14-46-35-56l-56-28c-21-11-34-32-34-56v-24h375v24c0 24-14 45-35 56l-56 28c-21 10-34 32-34 56v40c0 83 54 156 134 180l89 27c53 16 89 64 89 120v141c0 9-7 16-16 16z m-671-157v94h62v-160l-18 6c-27 8-44 32-44 60z m625 0c0-28-18-52-45-60l-18-6c0 43 0 160 0 160h63v-94z" horiz-adv-x="1000" />
<glyph glyph-name="twitter" unicode="&#xea6f;" d="m906 602c-30-13-60-23-96-25 36 20 61 53 74 91-33-21-69-33-107-41-27 33-73 53-119 53-91 0-167-73-167-167 0-12 3-25 5-38-139 8-260 74-344 175-15-25-23-53-23-83 0-59 30-109 74-140-28 0-53 8-76 21v-3c0-81 58-147 134-162-15-2-28-5-43-5-10 0-21 0-31 3 21-66 84-114 155-117-56-45-129-71-208-71-12 0-28 0-40 3 73-48 162-76 255-76 307 0 474 253 474 473 0 8 0 15 0 20 33 28 61 56 83 89z" horiz-adv-x="1000" />
<glyph glyph-name="uber-u" unicode="&#xea70;" d="m824 723h-243c0 0 0-31 0-51 0-31 26-51 51-51 0 0 66 0 142 0v-400c0-102-51-142-172-147h-198c-127 0-178 41-178 142v405h193c0 0 0 31 0 51 0 30-25 51-51 51h-192c-31 0-51-21-51-51v-446c0-167 91-249 279-249h197l0 0c183 0 274 82 274 249v446c0 25-25 51-51 51z" horiz-adv-x="1000" />
<glyph glyph-name="uber" unicode="&#xea71;" d="m740 814v-542c0-181-80-256-268-256-187 0-267 75-267 256v565h-181c-16 0-24-7-24-23v-551c0-302 193-408 472-408 280 0 473 106 473 408v574h-181c-16 0-24-7-24-23z m2622-134c15 0 22 5 27 16l52 130c3 7 0 11-8 11h-728c-68 0-94-20-94-67v-841c0-39 20-57 72-57h679c15 0 22 5 27 16l52 129c3 8 0 12-8 12h-620v171c0 59 32 86 120 86h269c15 0 22 5 27 16l50 124c3 8 0 12-8 12h-458v242h549z m-1282-299c79 41 112 119 112 211 0 214-174 245-354 245h-411c-69 0-94-20-94-67v-841c0-39 19-57 72-57h506c191 0 327 74 327 267 0 115-49 213-158 242z m-548 303h321c106 0 136-40 136-124 0-84-30-125-136-125h-321v249z m358-659h-358v179c0 59 33 86 121 86h237c114 0 145-44 145-133 0-88-31-132-145-132z m2814-136l-217 371c108 28 195 99 195 280 0 234-145 297-386 297h-413c-68 0-94-20-94-67v-875c0-15 8-23 24-23h176v282c0 59 33 86 121 86h179l195-352c6-10 12-16 27-16h184c13 0 13 11 9 17z m-378 501h-337v292h337c126 0 153-48 153-146 0-99-27-146-153-146z" horiz-adv-x="4706" />
<glyph glyph-name="unlock" unicode="&#xea72;" d="m735-103h-594c-9 0-16 7-16 15v407c0 8 7 15 16 15h594c8 0 15-7 15-15v-407c0-8-7-15-15-15z m140 525v157c0 111-91 200-200 192-100-6-175-96-175-198v-151c0-14 11-25 25-25h76c13 0 24 11 24 25v162c0 52 16 63 63 63 51 0 62-15 62-63v-162c0-14 11-25 25-25h76c13 0 24 11 24 25z" horiz-adv-x="1000" />
<glyph glyph-name="unstar" unicode="&#xea73;" d="m567 624l-203-566-116-80c-14-9-32 4-26 19l91 279-243 165c-14 10-7 31 10 31h303l101 304c5 15 27 15 32 0l51-152z m354-152h-284l113 316h-62l-313-876h63l80 226 234-159c14-10 32 3 26 19l-93 277 245 166c14 10 7 31-9 31z" horiz-adv-x="1000" />
<glyph glyph-name="up-arrow" unicode="&#xea74;" d="m832 212l-67-66c-6-6-16-6-22 0l-243 243-243-243c-6-6-16-6-22 0l-66 66c-7 6-7 16 0 22l254 254 66 66c6 7 16 7 22 0l66-66 255-254c6-6 6-16 0-22z" horiz-adv-x="1000" />
<glyph glyph-name="upload" unicode="&#xea75;" d="m813 709v-93c0-9-7-16-16-16h-594c-8 0-15 7-15 16v93c0 9 7 16 15 16h594c9 0 16-7 16-16z m-63-484l-212 292c-19 25-57 25-76 0l-212-292h125v-250h250v250h125z" horiz-adv-x="1000" />
<glyph glyph-name="crown" unicode="&#xea76;" d="m938 413c0-35-28-63-63-63-3 0-7 2-10 2l-45-261c-4-31-30-53-61-53h-517c-31 0-57 22-62 53l-44 261c-4 0-7-2-11-2-34 0-62 28-62 63s28 62 62 62 63-28 63-62c0-13-5-25-12-34l137-91 156 259c-18 11-31 30-31 53 0 35 28 63 62 63s63-28 63-63c0-23-13-42-31-53l156-259 136 91c-6 9-11 21-11 34 0 34 28 62 62 62s63-28 63-62z" horiz-adv-x="1000" />
<glyph glyph-name="chart-area" unicode="&#xea77;" d="m95 651l260 23 278-157 270 202v-260l-270-154-278 115-260 7v224z m1-682h808l-1 417-270-152-278 116-260 9 1-390z" horiz-adv-x="1000" />
<glyph glyph-name="circle-check" unicode="&#xea78;" d="m507 780c-242 0-438-196-438-437 0-242 196-438 438-438 241 0 437 196 437 438 0 241-196 437-437 437z m0-750c-173 0-313 140-313 313 0 172 140 312 313 312 172 0 312-140 312-312 0-173-140-313-312-313z m228 402l-256-256c-21-21-55-21-76 0l-122 122c-6 6-6 14 0 19l63 64c5 5 14 5 19 0l78-78 212 212c5 5 13 5 19 0l63-64c5-5 5-13 0-19z" horiz-adv-x="1000" />
<glyph glyph-name="circle-ellipsis" unicode="&#xea79;" d="m507 780c-242 0-438-196-438-437 0-242 196-438 438-438 241 0 437 196 437 438 0 241-196 437-437 437z m0-750c-173 0-313 140-313 313 0 172 140 312 313 312 172 0 312-140 312-312 0-173-140-313-312-313z m-125 313c0-35-28-63-63-63s-62 28-62 63c0 34 28 62 62 62s63-28 63-62z m187 0c0-35-28-63-62-63s-63 28-63 63c0 34 28 62 63 62s62-28 62-62z m188 0c0-35-28-63-63-63s-62 28-62 63c0 34 28 62 62 62s63-28 63-62z" horiz-adv-x="1000" />
<glyph glyph-name="circle" unicode="&#xea7a;" d="m507 780c-242 0-438-196-438-437 0-242 196-438 438-438 241 0 437 196 437 438 0 241-196 437-437 437z m0-750c-173 0-313 140-313 313 0 172 140 312 313 312 172 0 312-140 312-312 0-173-140-313-312-313z" horiz-adv-x="1000" />
<glyph glyph-name="clock" unicode="&#xea7b;" d="m500 700c193 0 350-157 350-350s-157-350-350-350-350 157-350 350 157 350 350 350m0 88c-242 0-437-196-437-438s195-438 437-438 438 196 438 438-196 438-438 438l0 0z m241-530l-193 122-22 186 0 3h0-52 0l0-3-25-209 0-1c0 0 0-1 0-1 0-1 0-1 0-1-1-20 9-40 28-50 1 0 1 0 2 0l0-1 239-91 1-1 0 0 23 46 0 1-1 0z" horiz-adv-x="1000" />
<glyph glyph-name="link" unicode="&#xea7c;" d="m864 361l-132-133c-98-97-256-97-354 0-11 12-21 24-30 37l64 63c7 8 17 12 28 13l8 1c5-9 11-18 19-25 47-48 123-49 172-4l1 0 136 136c49 49 49 128 0 177-49 49-128 49-177 0l-26-26-44 11c-37 10-75 13-112 9l94 94 0 0c97 98 256 98 353 0 98-97 98-256 0-353z m-393-272l-44 11-26-26c-49-49-128-49-177 0-49 49-49 128 0 177l137 136 0 0c49 45 125 44 173-3 7-8 13-17 19-26l7 1c11 1 21 5 28 13l64 63c-9 13-19 26-30 37-98 98-256 98-354 0l-132-133c-98-97-98-256 0-353 97-98 256-98 353 0l0 0 94 94c-37-4-75-1-112 9z" horiz-adv-x="1000" />
<glyph glyph-name="underline" unicode="&#xea7d;" d="m228 354v434h151v-432c0-82 37-118 122-118 85 0 121 35 121 118v432h150v-434c0-170-92-254-271-254-178 0-273 84-273 254z m-40-348v-94h625v94h-625z" horiz-adv-x="1000" />
<glyph glyph-name="bold" unicode="&#xea7e;" d="m688 373v3c62 29 113 90 113 188 0 138-99 224-289 224h-356v-876h361c220 0 315 97 315 255 0 111-51 180-144 206z m-344 243h161c73 0 105-23 105-92 0-69-30-96-100-96h-166v188z m175-547h-175v219h170c85 0 118-34 118-108 0-82-35-111-113-111z" horiz-adv-x="1000" />
<glyph glyph-name="italic" unicode="&#xea7f;" d="m651 694l-96-688h209v-94h-222-206-210v94h223l96 688h-209v94h222 207 209v-94h-223z" horiz-adv-x="1000" />
<glyph glyph-name="slanted-up-arrow" unicode="&#xea80;" d="m302 544c2-28 26-48 53-45l248 23-364-365c-19-19-19-50 0-69s50-19 69 0l365 364-23-248c-3-27 17-51 45-53 27-3 51 17 53 44l35 384c2 14-4 29-14 39-10 10-25 16-39 14l-384-35c-27-2-47-26-44-53z" horiz-adv-x="1000" />
<glyph glyph-name="down-arrow-alt" unicode="&#xea81;" d="m782 361c-21 18-52 15-70-6l-159-191v515c0 27-22 49-49 49-27 0-49-22-49-49v-515l-160 191c-17 21-48 24-69 6-21-17-24-48-6-69l246-296c9-12 23-18 38-18s28 6 38 18l246 296c18 21 15 52-6 69z" horiz-adv-x="1000" />
<glyph glyph-name="down-arrow-thin" unicode="&#xea82;" d="m501-87l-2-1-266 254 56 51 180-169v740h62v-741l182 170 54-51-266-254 0 1z" horiz-adv-x="1000" />
<glyph glyph-name="globe" unicode="&#xea83;" d="m527 778c-5 1-10 2-15 2-1 0-3-1-4-1-3 0-5 1-8 1-241 0-437-197-437-438 0-241 196-437 437-437 3 0 5 0 8 0 1 0 3 0 4 0 5 0 10 0 15 1 229 14 411 204 411 436s-182 422-411 436z m-158-76c-44-52-80-125-100-212-61 7-99 15-113 18 43 90 119 159 213 194z m-252-360c0 40 6 79 18 115 10-2 50-12 124-21-4-30-7-61-7-94 0-41 4-81 11-118-63-7-102-15-120-20-16 43-26 90-26 138z m50-188c20 4 55 11 108 16 20-76 54-141 94-187-86 31-157 92-202 171z m302-190c-47 20-116 101-144 211 40 3 97 5 144 5v-216z m0 271c-47-1-111-3-154-7-6 37-8 75-8 114 0 31 1 61 4 89 44-3 111-6 158-6v-190z m0 244c-47 1-108 3-150 6 26 122 103 214 150 235v-241z m374 32c-8-2-43-12-111-20-16 82-44 152-80 203 83-36 151-102 191-183z m-312 210c47-19 124-112 150-236-41-3-103-5-150-6v242z m0-296c47 0 113 3 156 7 4-29 5-59 5-90 0-39-1-78-7-114-43 4-107 6-154 7v190z m0-462v217c47 0 104-2 144-5-27-112-97-194-144-212z m121 28c33 45 59 106 75 178 54-6 88-13 105-18-41-71-104-127-180-160z m85 232c5 38 8 78 8 119 0 33-2 65-5 95 84 10 121 23 124 24l-9 25c18-45 28-93 28-144 0-50-10-97-27-141-15 5-53 14-119 22z" horiz-adv-x="1000" />
<glyph glyph-name="left-arrow-alt" unicode="&#xea84;" d="m512 75c18 21 15 52-6 70l-191 159h515c27 0 49 22 49 49 0 27-22 49-49 49h-515l191 159c21 18 24 49 6 70-17 21-48 24-69 6l-296-246c-12-10-18-23-18-38s6-29 18-38l296-246c21-18 52-15 69 6z" horiz-adv-x="1000" />
<glyph glyph-name="left-arrow-thin" unicode="&#xea85;" d="m63 351l253 266 51-55-170-181h741v-62h-740l169-181-51-56-253 267 1 1-1 1z" horiz-adv-x="1000" />
<glyph glyph-name="phone-alt" unicode="&#xea86;" d="m188 650l69 70 173-173-53-107c-10-19-6-42 9-57l158-158c15-15 37-18 56-9l107 53 173-173-69-69c-76-77-200-77-277 0l-346 346c-77 77-77 201 0 277z" horiz-adv-x="1000" />
<glyph glyph-name="right-arrow-alt" unicode="&#xea87;" d="m496 631c-18-21-15-52 6-70l191-159h-515c-27 0-49-22-49-49 0-27 22-49 49-49h515l-191-159c-21-18-24-49-6-70 17-21 48-24 69-6l296 246c11 9 18 23 18 38s-7 28-18 38l-296 246c-21 18-52 15-69-6z" horiz-adv-x="1000" />
<glyph glyph-name="right-arrow-thin" unicode="&#xea88;" d="m936 350l2-1-254-267-51 56 169 181h-739v62h740l-170 181 51 55 254-266-2-1z" horiz-adv-x="1000" />
<glyph glyph-name="slanted-down-arrow" unicode="&#xea89;" d="m695 555c-28-2-48-26-45-53l23-248-365 364c-19 19-50 19-69 0s-19-50 0-70l364-364-248 23c-27 2-51-18-53-45-3-27 17-51 44-53l384-35c14-2 29 3 39 14 10 10 16 25 14 39l-35 384c-2 27-26 47-53 44z" horiz-adv-x="1000" />
<glyph glyph-name="up-arrow-alt" unicode="&#xea8a;" d="m782 345c-21-18-52-15-70 6l-159 191v-515c0-27-22-49-49-49-27 0-49 22-49 49v515l-160-191c-17-21-48-24-69-6-21 17-24 48-6 69l246 296c9 11 23 18 38 18s28-7 38-18l246-296c18-21 15-52-6-69z" horiz-adv-x="1000" />
<glyph glyph-name="up-arrow-thin" unicode="&#xea8b;" d="m499 786l2 1 266-253-56-51-180 169v-740h-62v741l-182-170-54 51 266 253 0-1z" horiz-adv-x="1000" />
<glyph glyph-name="events" unicode="&#xea8c;" d="m939 14h0l-8 30v0c-5 17-22 27-38 22l-76-19-36 133c53 45 75 142 48 243l-85 317c-4 16-21 26-38 22l-162-43c-2 1-4 2-6 3l-242 64c-16 5-33-5-38-22l-85-317c-27-101-5-197 48-243l-35-132-76 19c-17 4-34-6-38-22v0h0l-8-31 0 0c-5-16 6-33 22-38v0l242-62 0 0c17-4 34 6 38 23l8 30 0 0c5 17-6 34-22 38l-75 19 35 132c69 13 136 85 163 187l23 85 29-110c27-101 95-174 163-187l36-131-75-20c-17-4-27-21-23-38v0l8-30v0c4-17 21-27 38-23l0 0 242 63 0 0c17 4 27 21 23 38z m-661 583l32 121 135-36 0 0 46-12-19-73h-13-181z m252-24l23 83 139 37 32-120h-194z" horiz-adv-x="1000" />
<glyph glyph-name="layout" unicode="&#xea8d;" d="m563-25h-312c-70 0-126 56-126 125v273h438v-398z m-125 500h437v125c0 70-56 125-125 125h-312v-250z m437-102h-187v-398h87c56 0 100 45 100 101v297z m-750 102h188v250h-88c-55 0-100-45-100-100v-150z" horiz-adv-x="1000" />
<glyph glyph-name="crosshairs-alt" unicode="&#xea8e;" d="m922 381h-111c-14 148-139 265-280 280v111c0 9-6 16-15 16h-31c-9 0-16-7-16-16v-111c-141-15-265-132-280-280h-111c-8 0-15-7-15-15v-32c0-8 7-15 15-15h111c15-148 139-265 280-280v-111c0-9 7-16 16-16h31c9 0 15 7 15 16v111c141 15 266 132 280 280h111c9 0 16 7 16 15v32c0 8-7 15-16 15z m-422-281c-138 0-250 112-250 250s112 250 250 250 250-112 250-250-112-250-250-250z m125 250c0-69-56-125-125-125s-125 56-125 125 56 125 125 125 125-56 125-125z" horiz-adv-x="1000" />
<glyph glyph-name="fullscreen-exit" unicode="&#xea8f;" d="m469 319v-78-206c0-4-3-13-8-13h-62c-5 0-8 9-8 13v148l-215-215c-3-3-8-3-11 0l-44 44c-3 3-3 8 0 11l217 218h-153c-4 0-13 3-13 7v63c0 4 9 8 13 8h206 78z m411 369l-44 44c-4 3-9 3-12 0l-215-215v148c0 4-3 13-7 13h-63c-4 0-8-9-8-13v-206-78h79 205c5 0 13 4 13 8v63c0 4-8 7-13 7h-153l218 218c3 3 3 8 0 11z" horiz-adv-x="1000" />
<glyph glyph-name="fullscreen" unicode="&#xea90;" d="m473 282c4-3 4-8 0-11l-217-218h153c4 0 13-3 13-8v-62c0-5-9-8-13-8h-206-78v78 206c0 4 4 13 8 13h63c4 0 7-9 7-13v-148l215 215c3 3 8 3 11 0l44-44z m324 443h-206c-4 0-13-3-13-8v-62c0-5 9-8 13-8h154l-218-217c-3-4-3-9 0-12l44-44c3-3 8-3 11 0l215 215v-148c0-4 4-13 8-13h62c5 0 8 9 8 13v206 78h-78z" horiz-adv-x="1000" />
<glyph glyph-name="pause" unicode="&#xea91;" d="m360-25h-141c-17 0-31 14-31 31v688c0 17 14 31 31 31h141c17 0 31-14 31-31v-688c0-17-14-31-31-31z m453 31v688c0 17-14 31-31 31h-141c-17 0-31-14-31-31v-688c0-17 14-31 31-31h141c17 0 31 14 31 31z" horiz-adv-x="1000" />
<glyph glyph-name="play" unicode="&#xea92;" d="m244 734l574-365c20-13 20-41 0-53l-574-366c-31-19-72 3-72 40v704c0 37 41 60 72 40z" horiz-adv-x="1000" />
<glyph glyph-name="previous" unicode="&#xea93;" d="m63 569c0 17 14 31 31 31l0 0h31l0 0c17 0 31-14 31-31l0 0v-171l343 198 0-1c5 3 10 5 15 5 18 0 32-14 32-31v-173l345 200 0-1c5 3 10 5 16 5 17 0 31-14 31-31l0-437c0-18-14-32-31-32-6 0-11 2-16 5l0 0-345 199v-172c0-18-14-32-32-32-5 0-10 2-15 5l0 0-343 197v-170l0 0c0-18-14-32-31-32h0l0 0h-31l0 0h0c-17 0-31 14-31 32v437h0l0 0z" horiz-adv-x="1000" />
<glyph glyph-name="sound-off" unicode="&#xea94;" d="m297 194h-94c-25 0-46 21-46 47v218c0 26 21 47 46 47h94l191 147c5 4 12 0 12-6v-235l-135-270-68 52z m458 435l79 157h-74l0 0h1l-437-874h73l74 148 17-13c5-4 12 0 12 6v66l146 292c4-19 7-40 7-61 0-71-24-136-63-188-2-3-3-6-1-9l28-41c3-4 9-5 12 0 54 64 86 147 86 238 0 50-10 98-28 142l35 71c36-63 56-136 56-213 0-114-44-218-115-295-3-3-3-7-1-10l27-40c2-4 8-4 12-1 86 90 139 212 139 346 0 103-31 199-85 279z" horiz-adv-x="1000" />
<glyph glyph-name="sound-on" unicode="&#xea95;" d="m500 647v-594c0-6-7-10-12-6l-191 147h-94c-25 0-46 21-46 47v218c0 26 21 47 46 47h94l191 147c5 4 12 0 12-6z m189 48l-27-40c-2-3-2-7 1-9 71-78 115-182 115-296s-44-218-115-295c-3-3-3-7-1-10l27-40c2-4 8-4 12-1 86 90 139 212 139 346s-53 256-139 346c-4 4-10 3-12-1z m-72-107l-28-41c-2-3-1-6 1-9 39-52 63-117 63-188s-24-136-63-188c-2-3-3-6-1-9l28-41c3-4 9-5 12 0 54 64 86 147 86 238s-32 174-86 239c-3 4-9 3-12-1z" horiz-adv-x="1000" />
<glyph glyph-name="film" unicode="&#xea96;" d="m813 725h-88-537c-35 0-63-28-63-62v-626c0-34 28-62 63-62h537 88c34 0 62 28 62 62v626c0 34-28 62-62 62z m-563-687h-62v125h62v-125z m0 250h-62v125h62v-125z m0 250h-62v125h62v-125z m438-500h-375v250h375v-250z m0 375h-375v250h375v-250z m125-375h-63v125h63v-125z m0 250h-63v125h63v-125z m0 250h-63v125h63v-125z" horiz-adv-x="1000" />
<glyph glyph-name="delete-thin" unicode="&#xea97;" d="m544 350l288-287-45-44-287 287-287-287-44 44 287 287-287 287 44 45 287-288 287 288 45-45-288-287z" horiz-adv-x="1000" />
<glyph glyph-name="wrench" unicode="&#xea98;" d="m506 356c-23 23-41 49-52 79l-311-311c-12-12-18-26-18-42 0-16 6-30 18-41l48-49c12-11 26-17 42-17 16 0 29 6 41 17l311 311c-30 12-56 30-79 53z m-224-265c-5-6-12-9-20-9s-15 3-21 9c-5 6-8 13-8 21s3 14 8 20 13 9 21 9 15-3 20-9 9-13 9-20-3-15-9-21z m592 411c0-12-3-28-10-49-14-40-39-73-75-99-36-25-75-38-118-38-56 0-105 20-145 60s-60 88-60 145 20 104 60 144 89 60 145 60c18 0 36-2 55-7 20-6 36-13 49-22 5-3 8-7 8-12s-3-10-8-13l-134-77v-103l88-49c2 1 14 9 37 23 22 13 43 26 62 37s29 16 32 16c4 0 8-2 11-5 2-3 3-7 3-11l0 0z" horiz-adv-x="1000" />
<glyph glyph-name="bug" unicode="&#xea99;" d="m500 720c-83 0-150-73-150-167h300c0 94-67 167-150 167z m338-370h-119v102c0 1 3 2 3 3l84 92c15 17 16 43 1 59-15 17-38 17-53 0l-82-88c-2 0-2 4-3 4h-338c-1 0-2-4-3-4l-83 90c-14 16-38 16-53-1-14-16-14-43 0-59l86-93c0-1 3-2 3-3v-102h-118c-21 0-38-16-38-39 0-23 17-39 38-39h112c0-47 6-67 16-96-2-1-3-4-5-5l-106-119c-15-16-15-43 0-60 15-16 38-16 53 0l101 109c33-43 72-73 135-83v410h62v-410c63 10 102 40 135 82l100-108c14-16 39-16 53 0 15 16 15 43 1 59l-106 118c-2 1-3 6-5 7 10 29 16 49 16 96h113c20 0 37 16 37 39 0 23-17 39-37 39z" horiz-adv-x="1000" />
<glyph glyph-name="control-off" unicode="&#xea9a;" d="m498 451c-35 0-63 28-63 62v183h125v-155l62 109v46l24 31c8 0 15 7 15 16s-7 16-15 16h-296c-8 0-15-7-15-16s7-16 15-16l23-31v-249l-174-347c-10-19-12-41-7-62 8-26 23-48 45-63l273 478c-4-1-8-2-12-2z m129-12l182 320h-62l-125-218-335-588-38-66h62l35 62h338c55 0 103 35 119 87 6 21 3 43-7 62l-169 341z" horiz-adv-x="1000" />
<glyph glyph-name="control-on" unicode="&#xea9b;" d="m798 97l-175 349 0 0v250l24 31c9 0 16 7 16 16s-7 16-16 16h-297c-8 0-15-7-15-16s7-16 15-16l23-31v-250l-174-349c-10-19-13-41-7-62 15-53 64-89 119-89h375c54 0 103 35 119 87 6 21 4 45-7 64z m-237 415c0-34-28-62-63-62-34 0-62 28-62 62v184h125v-184z" horiz-adv-x="1000" />
<glyph glyph-name="settings-alt" unicode="&#xea9c;" d="m859 413h-390c-22 37-62 62-108 62s-86-25-108-62h-112c-9 0-16-7-16-16v-94c0-8 7-15 16-15h112c22-38 62-63 108-63s86 25 108 63h390c9 0 16 7 16 15v94c0 9-7 16-16 16z m-498-130c-37 0-67 30-67 67s30 67 67 67 67-30 67-67-30-67-67-67z m498-183h-112c-22 37-62 63-108 63s-86-26-108-63h-390c-9 0-16-7-16-16v-93c0-9 7-16 16-16h390c22-37 62-63 108-63s86 26 108 63h112c9 0 16 7 16 16v93c0 9-7 16-16 16z m-220-130c-37 0-67 31-67 68s30 67 67 67 67-30 67-67-30-68-67-68z m220 755h-112c-22 37-62 63-108 63s-86-26-108-63h-390c-9 0-16-7-16-16v-93c0-9 7-16 16-16h390c22-37 62-62 108-62s86 25 108 62h112c9 0 16 7 16 16v93c0 9-7 16-16 16z m-220-130c-37 0-67 31-67 68s30 67 67 67 67-30 67-67-30-68-67-68z" horiz-adv-x="1000" />
</font>
</defs>
</svg>
